<?xml version="1.0" encoding="utf-8" standalone="no"?>
<!DOCTYPE svg PUBLIC "-//W3C//DTD SVG 1.1//EN"
  "http://www.w3.org/Graphics/SVG/1.1/DTD/svg11.dtd">
<svg xmlns:xlink="http://www.w3.org/1999/xlink" width="712.7525pt" height="353.174258pt" viewBox="0 0 712.7525 353.174258" xmlns="http://www.w3.org/2000/svg" version="1.1">
 <metadata>
  <rdf:RDF xmlns:dc="http://purl.org/dc/elements/1.1/" xmlns:cc="http://creativecommons.org/ns#" xmlns:rdf="http://www.w3.org/1999/02/22-rdf-syntax-ns#">
   <cc:Work>
    <dc:type rdf:resource="http://purl.org/dc/dcmitype/StillImage"/>
    <dc:date>2026-07-18T18:57:57.100488</dc:date>
    <dc:format>image/svg+xml</dc:format>
    <dc:creator>
     <cc:Agent>
      <dc:title>Matplotlib v3.11.1, https://matplotlib.org/</dc:title>
     </cc:Agent>
    </dc:creator>
   </cc:Work>
  </rdf:RDF>
 </metadata>
 <defs>
  <style type="text/css">*{stroke-linejoin: round; stroke-linecap: butt}</style>
 </defs>
 <g id="figure_1">
  <g id="patch_1">
   <path d="M 0 353.174258 
L 712.7525 353.174258 
L 712.7525 0 
L 0 0 
z
" style="fill: #ffffff"/>
  </g>
  <g id="axes_1">
   <g id="patch_2">
    <path d="M 37.34668 316.970156 
L 705.5525 316.970156 
L 705.5525 38.9775 
L 37.34668 38.9775 
z
" style="fill: #ffffff"/>
   </g>
   <g id="matplotlib.axis_1">
    <g id="xtick_1">
     <g id="line2d_1">
      <path d="M 51.356131 316.970156 
L 51.356131 38.9775 
" clip-path="url(#p9da1b1ab76)" style="fill: none; stroke: #cccccc; stroke-width: 0.8; stroke-linecap: round"/>
     </g>
     <g id="line2d_2"/>
     <g id="text_1">
      <text style="font-size: 10px; font-family: 'Microsoft YaHei', 'SimHei', sans-serif; text-anchor: middle; fill: #262626" x="51.356131" y="328.590273" transform="rotate(-0 51.356131 328.590273)">0</text>
     </g>
    </g>
    <g id="xtick_2">
     <g id="line2d_3">
      <path d="M 127.288611 316.970156 
L 127.288611 38.9775 
" clip-path="url(#p9da1b1ab76)" style="fill: none; stroke: #cccccc; stroke-width: 0.8; stroke-linecap: round"/>
     </g>
     <g id="line2d_4"/>
     <g id="text_2">
      <text style="font-size: 10px; font-family: 'Microsoft YaHei', 'SimHei', sans-serif; text-anchor: middle; fill: #262626" x="127.288611" y="328.590273" transform="rotate(-0 127.288611 328.590273)">5</text>
     </g>
    </g>
    <g id="xtick_3">
     <g id="line2d_5">
      <path d="M 203.22109 316.970156 
L 203.22109 38.9775 
" clip-path="url(#p9da1b1ab76)" style="fill: none; stroke: #cccccc; stroke-width: 0.8; stroke-linecap: round"/>
     </g>
     <g id="line2d_6"/>
     <g id="text_3">
      <text style="font-size: 10px; font-family: 'Microsoft YaHei', 'SimHei', sans-serif; text-anchor: middle; fill: #262626" x="203.22109" y="328.590273" transform="rotate(-0 203.22109 328.590273)">10</text>
     </g>
    </g>
    <g id="xtick_4">
     <g id="line2d_7">
      <path d="M 279.15357 316.970156 
L 279.15357 38.9775 
" clip-path="url(#p9da1b1ab76)" style="fill: none; stroke: #cccccc; stroke-width: 0.8; stroke-linecap: round"/>
     </g>
     <g id="line2d_8"/>
     <g id="text_4">
      <text style="font-size: 10px; font-family: 'Microsoft YaHei', 'SimHei', sans-serif; text-anchor: middle; fill: #262626" x="279.15357" y="328.590273" transform="rotate(-0 279.15357 328.590273)">15</text>
     </g>
    </g>
    <g id="xtick_5">
     <g id="line2d_9">
      <path d="M 355.086049 316.970156 
L 355.086049 38.9775 
" clip-path="url(#p9da1b1ab76)" style="fill: none; stroke: #cccccc; stroke-width: 0.8; stroke-linecap: round"/>
     </g>
     <g id="line2d_10"/>
     <g id="text_5">
      <text style="font-size: 10px; font-family: 'Microsoft YaHei', 'SimHei', sans-serif; text-anchor: middle; fill: #262626" x="355.086049" y="328.590273" transform="rotate(-0 355.086049 328.590273)">20</text>
     </g>
    </g>
    <g id="xtick_6">
     <g id="line2d_11">
      <path d="M 431.018529 316.970156 
L 431.018529 38.9775 
" clip-path="url(#p9da1b1ab76)" style="fill: none; stroke: #cccccc; stroke-width: 0.8; stroke-linecap: round"/>
     </g>
     <g id="line2d_12"/>
     <g id="text_6">
      <text style="font-size: 10px; font-family: 'Microsoft YaHei', 'SimHei', sans-serif; text-anchor: middle; fill: #262626" x="431.018529" y="328.590273" transform="rotate(-0 431.018529 328.590273)">25</text>
     </g>
    </g>
    <g id="xtick_7">
     <g id="line2d_13">
      <path d="M 506.951009 316.970156 
L 506.951009 38.9775 
" clip-path="url(#p9da1b1ab76)" style="fill: none; stroke: #cccccc; stroke-width: 0.8; stroke-linecap: round"/>
     </g>
     <g id="line2d_14"/>
     <g id="text_7">
      <text style="font-size: 10px; font-family: 'Microsoft YaHei', 'SimHei', sans-serif; text-anchor: middle; fill: #262626" x="506.951009" y="328.590273" transform="rotate(-0 506.951009 328.590273)">30</text>
     </g>
    </g>
    <g id="xtick_8">
     <g id="line2d_15">
      <path d="M 582.883488 316.970156 
L 582.883488 38.9775 
" clip-path="url(#p9da1b1ab76)" style="fill: none; stroke: #cccccc; stroke-width: 0.8; stroke-linecap: round"/>
     </g>
     <g id="line2d_16"/>
     <g id="text_8">
      <text style="font-size: 10px; font-family: 'Microsoft YaHei', 'SimHei', sans-serif; text-anchor: middle; fill: #262626" x="582.883488" y="328.590273" transform="rotate(-0 582.883488 328.590273)">35</text>
     </g>
    </g>
    <g id="xtick_9">
     <g id="line2d_17">
      <path d="M 658.815968 316.970156 
L 658.815968 38.9775 
" clip-path="url(#p9da1b1ab76)" style="fill: none; stroke: #cccccc; stroke-width: 0.8; stroke-linecap: round"/>
     </g>
     <g id="line2d_18"/>
     <g id="text_9">
      <text style="font-size: 10px; font-family: 'Microsoft YaHei', 'SimHei', sans-serif; text-anchor: middle; fill: #262626" x="658.815968" y="328.590273" transform="rotate(-0 658.815968 328.590273)">40</text>
     </g>
    </g>
    <g id="text_10">
     <text style="font-size: 10px; font-family: 'Microsoft YaHei', 'SimHei', sans-serif; text-anchor: middle; fill: #262626" x="371.44959" y="343.440078" transform="rotate(-0 371.44959 343.440078)">时间 (秒)</text>
    </g>
   </g>
   <g id="matplotlib.axis_2">
    <g id="ytick_1">
     <g id="line2d_19">
      <path d="M 37.34668 316.970156 
L 705.5525 316.970156 
" clip-path="url(#p9da1b1ab76)" style="fill: none; stroke: #cccccc; stroke-width: 0.8; stroke-linecap: round"/>
     </g>
     <g id="line2d_20"/>
     <g id="text_11">
      <text style="font-size: 10px; font-family: 'Microsoft YaHei', 'SimHei', sans-serif; text-anchor: end; fill: #262626" x="33.84668" y="321.030215" transform="rotate(-0 33.84668 321.030215)">0</text>
     </g>
    </g>
    <g id="ytick_2">
     <g id="line2d_21">
      <path d="M 37.34668 281.999248 
L 705.5525 281.999248 
" clip-path="url(#p9da1b1ab76)" style="fill: none; stroke: #cccccc; stroke-width: 0.8; stroke-linecap: round"/>
     </g>
     <g id="line2d_22"/>
     <g id="text_12">
      <text style="font-size: 10px; font-family: 'Microsoft YaHei', 'SimHei', sans-serif; text-anchor: end; fill: #262626" x="33.84668" y="286.059306" transform="rotate(-0 33.84668 286.059306)">2</text>
     </g>
    </g>
    <g id="ytick_3">
     <g id="line2d_23">
      <path d="M 37.34668 247.028339 
L 705.5525 247.028339 
" clip-path="url(#p9da1b1ab76)" style="fill: none; stroke: #cccccc; stroke-width: 0.8; stroke-linecap: round"/>
     </g>
     <g id="line2d_24"/>
     <g id="text_13">
      <text style="font-size: 10px; font-family: 'Microsoft YaHei', 'SimHei', sans-serif; text-anchor: end; fill: #262626" x="33.84668" y="251.088398" transform="rotate(-0 33.84668 251.088398)">4</text>
     </g>
    </g>
    <g id="ytick_4">
     <g id="line2d_25">
      <path d="M 37.34668 212.057431 
L 705.5525 212.057431 
" clip-path="url(#p9da1b1ab76)" style="fill: none; stroke: #cccccc; stroke-width: 0.8; stroke-linecap: round"/>
     </g>
     <g id="line2d_26"/>
     <g id="text_14">
      <text style="font-size: 10px; font-family: 'Microsoft YaHei', 'SimHei', sans-serif; text-anchor: end; fill: #262626" x="33.84668" y="216.11749" transform="rotate(-0 33.84668 216.11749)">6</text>
     </g>
    </g>
    <g id="ytick_5">
     <g id="line2d_27">
      <path d="M 37.34668 177.086523 
L 705.5525 177.086523 
" clip-path="url(#p9da1b1ab76)" style="fill: none; stroke: #cccccc; stroke-width: 0.8; stroke-linecap: round"/>
     </g>
     <g id="line2d_28"/>
     <g id="text_15">
      <text style="font-size: 10px; font-family: 'Microsoft YaHei', 'SimHei', sans-serif; text-anchor: end; fill: #262626" x="33.84668" y="181.146581" transform="rotate(-0 33.84668 181.146581)">8</text>
     </g>
    </g>
    <g id="ytick_6">
     <g id="line2d_29">
      <path d="M 37.34668 142.115614 
L 705.5525 142.115614 
" clip-path="url(#p9da1b1ab76)" style="fill: none; stroke: #cccccc; stroke-width: 0.8; stroke-linecap: round"/>
     </g>
     <g id="line2d_30"/>
     <g id="text_16">
      <text style="font-size: 10px; font-family: 'Microsoft YaHei', 'SimHei', sans-serif; text-anchor: end; fill: #262626" x="33.84668" y="146.175673" transform="rotate(-0 33.84668 146.175673)">10</text>
     </g>
    </g>
    <g id="ytick_7">
     <g id="line2d_31">
      <path d="M 37.34668 107.144706 
L 705.5525 107.144706 
" clip-path="url(#p9da1b1ab76)" style="fill: none; stroke: #cccccc; stroke-width: 0.8; stroke-linecap: round"/>
     </g>
     <g id="line2d_32"/>
     <g id="text_17">
      <text style="font-size: 10px; font-family: 'Microsoft YaHei', 'SimHei', sans-serif; text-anchor: end; fill: #262626" x="33.84668" y="111.204765" transform="rotate(-0 33.84668 111.204765)">12</text>
     </g>
    </g>
    <g id="ytick_8">
     <g id="line2d_33">
      <path d="M 37.34668 72.173798 
L 705.5525 72.173798 
" clip-path="url(#p9da1b1ab76)" style="fill: none; stroke: #cccccc; stroke-width: 0.8; stroke-linecap: round"/>
     </g>
     <g id="line2d_34"/>
     <g id="text_18">
      <text style="font-size: 10px; font-family: 'Microsoft YaHei', 'SimHei', sans-serif; text-anchor: end; fill: #262626" x="33.84668" y="76.233856" transform="rotate(-0 33.84668 76.233856)">14</text>
     </g>
    </g>
    <g id="text_19">
     <text style="font-size: 10px; font-family: 'Microsoft YaHei', 'SimHei', sans-serif; text-anchor: middle; fill: #333333" x="15.584375" y="177.973828" transform="rotate(-90 15.584375 177.973828)">单线程吞吐量 (MB/s/thread)</text>
    </g>
   </g>
   <g id="FillBetweenPolyCollection_1">
    <defs>
     <path id="m80a1d39380" d="M 342.314404 -116.165413 
L 342.314404 -36.204102 
L 357.5009 -36.204102 
L 357.5009 -106.236435 
L 357.5009 -106.236435 
L 342.314404 -116.165413 
z
" style="stroke: #e67e22; stroke-opacity: 0.15"/>
    </defs>
    <g clip-path="url(#p9da1b1ab76)">
     <use xlink:href="#m80a1d39380" x="0" y="353.174258" style="fill: #e67e22; fill-opacity: 0.15; stroke: #e67e22; stroke-opacity: 0.15"/>
    </g>
   </g>
   <g id="FillBetweenPolyCollection_2">
    <defs>
     <path id="mb12a83960a" d="M 462.568565 -59.436591 
L 462.568565 -36.204102 
L 477.755061 -36.204102 
L 492.941557 -36.204102 
L 508.128053 -36.204102 
L 523.314549 -36.204102 
L 538.501045 -36.204102 
L 553.687541 -36.204102 
L 568.874037 -36.204102 
L 584.060533 -36.204102 
L 599.247029 -36.204102 
L 614.433525 -36.204102 
L 629.62002 -36.204102 
L 644.806516 -36.204102 
L 659.993012 -36.204102 
L 675.179508 -36.204102 
L 675.179508 -36.204102 
L 675.179508 -36.204102 
L 659.993012 -36.204102 
L 644.806516 -36.204102 
L 629.62002 -36.204102 
L 614.433525 -36.204102 
L 599.247029 -36.204102 
L 584.060533 -36.204102 
L 568.874037 -36.204102 
L 553.687541 -40.008782 
L 538.501045 -67.178065 
L 523.314549 -67.987948 
L 508.128053 -61.881368 
L 492.941557 -47.9107 
L 477.755061 -52.084173 
L 462.568565 -59.436591 
z
" style="stroke: #27ae60; stroke-opacity: 0.15"/>
    </defs>
    <g clip-path="url(#p9da1b1ab76)">
     <use xlink:href="#mb12a83960a" x="0" y="353.174258" style="fill: #27ae60; fill-opacity: 0.15; stroke: #27ae60; stroke-opacity: 0.15"/>
    </g>
   </g>
   <g id="FillBetweenPolyCollection_3">
    <defs>
     <path id="m89256774c2" d="M 346.051178 -283.854842 
L 346.051178 -36.204102 
L 361.237674 -36.204102 
L 361.237674 -290.377249 
L 361.237674 -290.377249 
L 346.051178 -283.854842 
z
" style="stroke: #2e86c1; stroke-opacity: 0.15"/>
    </defs>
    <g clip-path="url(#p9da1b1ab76)">
     <use xlink:href="#m89256774c2" x="0" y="353.174258" style="fill: #2e86c1; fill-opacity: 0.15; stroke: #2e86c1; stroke-opacity: 0.15"/>
    </g>
   </g>
   <g id="line2d_35">
    <path d="M 68.957477 243.241708 
L 84.143973 237.640394 
L 99.330469 237.418172 
L 114.516965 235.643975 
L 129.703461 236.914044 
L 144.889957 236.577428 
L 160.076453 235.831382 
L 175.262949 235.886291 
L 190.449445 236.59414 
L 205.63594 237.378383 
L 220.822436 236.989245 
L 236.008932 236.794677 
L 251.195428 236.321982 
L 266.381924 236.682471 
L 281.56842 236.138156 
L 296.754916 235.887485 
L 311.941412 236.618013 
L 327.127908 236.927852 
L 342.314404 237.008845 
L 357.5009 246.937822 
" clip-path="url(#p9da1b1ab76)" style="fill: none; stroke: #e67e22; stroke-width: 2; stroke-linecap: round"/>
   </g>
   <g id="LineCollection_1">
    <path d="M 342.314404 316.970156 
L 342.314404 237.008845 
" clip-path="url(#p9da1b1ab76)" style="fill: none; stroke-dasharray: 1.5,2.475; stroke-dashoffset: 0; stroke: #e67e22; stroke-opacity: 0.8; stroke-width: 1.5"/>
   </g>
   <g id="line2d_36">
    <path d="M 67.719672 316.970156 
L 82.906167 292.030583 
L 98.092663 286.587431 
L 113.279159 273.091559 
L 128.465655 275.006659 
L 143.652151 275.187203 
L 158.838647 277.699038 
L 174.025143 279.31945 
L 189.211639 279.038191 
L 204.398135 277.884058 
L 219.584631 276.165168 
L 234.771127 283.2347 
L 249.957623 288.399577 
L 265.144118 290.980896 
L 280.330614 289.452248 
L 295.51711 287.9236 
L 310.703606 290.974182 
L 325.890102 292.796772 
L 341.076598 299.192625 
L 356.263094 295.666811 
L 371.44959 297.228834 
L 386.636086 294.036895 
L 401.822582 296.580261 
L 417.009078 292.20856 
L 432.195574 288.549632 
L 447.382069 291.815028 
L 462.568565 293.737667 
L 477.755061 301.090085 
L 492.941557 305.263558 
L 508.128053 291.29289 
L 523.314549 285.18631 
L 538.501045 285.996193 
L 553.687541 313.165476 
L 568.874037 316.970156 
L 584.060533 316.970156 
L 599.247029 316.970156 
L 614.433525 316.970156 
L 629.62002 316.970156 
L 644.806516 316.970156 
L 659.993012 316.970156 
L 675.179508 316.970156 
" clip-path="url(#p9da1b1ab76)" style="fill: none; stroke: #27ae60; stroke-width: 2; stroke-linecap: round"/>
   </g>
   <g id="LineCollection_2">
    <path d="M 462.568565 316.970156 
L 462.568565 293.737667 
" clip-path="url(#p9da1b1ab76)" style="fill: none; stroke-dasharray: 1.5,2.475; stroke-dashoffset: 0; stroke: #27ae60; stroke-opacity: 0.8; stroke-width: 1.5"/>
   </g>
   <g id="line2d_37">
    <path d="M 87.880747 52.215246 
L 103.067243 56.248908 
L 118.253739 52.215246 
L 133.440235 54.659889 
L 148.626731 52.45971 
L 163.813227 59.354369 
L 178.999723 60.040015 
L 194.186219 59.600743 
L 209.372714 60.725661 
L 224.55921 62.240195 
L 239.745706 63.657324 
L 254.932202 63.705071 
L 270.118698 63.315456 
L 285.305194 60.040015 
L 300.49169 56.691044 
L 315.678186 60.308353 
L 330.864682 61.383614 
L 346.051178 69.319416 
L 361.237674 62.797009 
" clip-path="url(#p9da1b1ab76)" style="fill: none; stroke: #2e86c1; stroke-width: 2; stroke-linecap: round"/>
   </g>
   <g id="LineCollection_3">
    <path d="M 346.051178 316.970156 
L 346.051178 69.319416 
" clip-path="url(#p9da1b1ab76)" style="fill: none; stroke-dasharray: 1.5,2.475; stroke-dashoffset: 0; stroke: #2e86c1; stroke-opacity: 0.8; stroke-width: 1.5"/>
   </g>
   <g id="patch_3">
    <path d="M 37.34668 316.970156 
L 37.34668 38.9775 
" style="fill: none; stroke: #cccccc; stroke-linejoin: miter; stroke-linecap: square"/>
   </g>
   <g id="patch_4">
    <path d="M 705.5525 316.970156 
L 705.5525 38.9775 
" style="fill: none; stroke: #cccccc; stroke-linejoin: miter; stroke-linecap: square"/>
   </g>
   <g id="patch_5">
    <path d="M 37.34668 316.970156 
L 705.5525 316.970156 
" style="fill: none; stroke: #cccccc; stroke-linejoin: miter; stroke-linecap: square"/>
   </g>
   <g id="patch_6">
    <path d="M 37.34668 38.9775 
L 705.5525 38.9775 
" style="fill: none; stroke: #cccccc; stroke-linejoin: miter; stroke-linecap: square"/>
   </g>
   <g id="text_20">
    <text style="font-weight: 700; font-size: 14px; font-family: 'Microsoft YaHei', 'SimHei', sans-serif; text-anchor: middle; fill: #262626" x="371.44959" y="18.9775" transform="rotate(-0 371.44959 18.9775)">广域网高带宽单线程效率实时对比 (MB/s/thread)</text>
   </g>
   <g id="legend_1">
    <g id="line2d_38">
     <path d="M 558.032188 52.87125 
L 568.032188 52.87125 
L 578.032188 52.87125 
" style="fill: none; stroke: #e67e22; stroke-width: 2; stroke-linecap: round"/>
    </g>
    <g id="text_21">
     <text style="font-size: 10px; font-family: 'Microsoft YaHei', 'SimHei', sans-serif; text-anchor: start; fill: #262626" x="586.032188" y="56.37125" transform="rotate(-0 586.032188 56.37125)">aria2c 单线程效率</text>
    </g>
    <g id="patch_7">
     <path d="M 558.032188 72.23043 
L 578.032188 72.23043 
L 578.032188 65.23043 
L 558.032188 65.23043 
z
" style="fill: #e67e22; fill-opacity: 0.15; stroke: #e67e22; stroke-opacity: 0.15; stroke-linejoin: miter"/>
    </g>
    <g id="text_22">
     <text style="font-size: 10px; font-family: 'Microsoft YaHei', 'SimHei', sans-serif; text-anchor: start; fill: #262626" x="586.032188" y="72.23043" transform="rotate(-0 586.032188 72.23043)">aria2c 尾段区域(&gt;95%)</text>
    </g>
    <g id="line2d_39">
     <path d="M 558.032188 84.658359 
L 568.032188 84.658359 
L 578.032188 84.658359 
" style="fill: none; stroke: #27ae60; stroke-width: 2; stroke-linecap: round"/>
    </g>
    <g id="text_23">
     <text style="font-size: 10px; font-family: 'Microsoft YaHei', 'SimHei', sans-serif; text-anchor: start; fill: #262626" x="586.032188" y="88.158359" transform="rotate(-0 586.032188 88.158359)">Surge 单线程效率</text>
    </g>
    <g id="patch_8">
     <path d="M 558.032188 104.027109 
L 578.032188 104.027109 
L 578.032188 97.027109 
L 558.032188 97.027109 
z
" style="fill: #27ae60; fill-opacity: 0.15; stroke: #27ae60; stroke-opacity: 0.15; stroke-linejoin: miter"/>
    </g>
    <g id="text_24">
     <text style="font-size: 10px; font-family: 'Microsoft YaHei', 'SimHei', sans-serif; text-anchor: start; fill: #262626" x="586.032188" y="104.027109" transform="rotate(-0 586.032188 104.027109)">Surge 尾段区域(&gt;95%)</text>
    </g>
    <g id="line2d_40">
     <path d="M 558.032188 116.464609 
L 568.032188 116.464609 
L 578.032188 116.464609 
" style="fill: none; stroke: #2e86c1; stroke-width: 2; stroke-linecap: round"/>
    </g>
    <g id="text_25">
     <text style="font-size: 10px; font-family: 'Microsoft YaHei', 'SimHei', sans-serif; text-anchor: start; fill: #262626" x="586.032188" y="119.964609" transform="rotate(-0 586.032188 119.964609)">GoAria 单线程效率</text>
    </g>
    <g id="patch_9">
     <path d="M 558.032188 135.823789 
L 578.032188 135.823789 
L 578.032188 128.823789 
L 558.032188 128.823789 
z
" style="fill: #2e86c1; fill-opacity: 0.15; stroke: #2e86c1; stroke-opacity: 0.15; stroke-linejoin: miter"/>
    </g>
    <g id="text_26">
     <text style="font-size: 10px; font-family: 'Microsoft YaHei', 'SimHei', sans-serif; text-anchor: start; fill: #262626" x="586.032188" y="135.823789" transform="rotate(-0 586.032188 135.823789)">GoAria 尾段区域(&gt;95%)</text>
    </g>
   </g>
  </g>
 </g>
 <defs>
  <clipPath id="p9da1b1ab76">
   <rect x="37.34668" y="38.9775" width="668.20582" height="277.992656"/>
  </clipPath>
 </defs>
</svg>
